<?xml version='1.0' encoding='utf-8'?>
<svg xmlns="http://www.w3.org/2000/svg" version="1.1" width="600px" height="976px" viewBox="0 0 600 976"> <g id="layer1"> <g style="fill:rgb(255,213,68); fill-opacity:1.0; stroke-linejoin: miter"> <path d="M276.24374,602.35284Q263.428,602.5771,254.47998,611.3344Q245.60916,620.41895,245.42479,633.1081Q245.58551,645.80206,254.41495,654.8976Q263.59018,663.79364,276.15555,663.9442Q288.97183,663.7376,297.93323,654.9905Q306.8168,645.9151,307.01614,633.2259Q306.87018,620.5321,298.05374,611.4272Q288.8923,602.52124,276.32715,602.35297"/> </g> <g style="fill:rgb(181,94,40); fill-opacity:1.0; stroke-linejoin: miter"> <path d="M276.24304,603.8806Q264.05524,604.09515,255.55154,612.42346Q247.12389,621.0606,246.95255,633.1203Q247.10931,645.1842,255.5058,653.8278Q264.23254,662.2819,276.18365,662.41644Q288.37167,662.20795,296.87994,653.8832Q305.31195,645.24915,305.48843,633.1894Q305.33667,621.1255,296.94464,612.47876Q288.22263,604.0213,276.2716,603.8806"/> </g> <g style="fill:rgb(255,213,68); fill-opacity:1.0; stroke-linejoin: miter"> <path d="M276.23972,607.6922Q265.646,607.87756,258.24936,615.1166Q250.9166,622.62604,250.76419,633.1151Q250.89705,643.60815,258.19562,651.1267Q265.78003,658.48035,276.1668,658.60486Q286.76102,658.434,294.16864,651.2034Q301.51196,643.70166,301.6768,633.21246Q301.55612,622.71954,294.26822,615.1932Q286.69525,607.8315,276.30865,607.6923"/> </g> <g> <g style="fill:rgb(195,116,46); fill-opacity:1.0; stroke-linejoin: miter"> <path d="M294.4188,635.90625L294.6487,636.23834Q294.4699,636.26385,294.34216,636.2894Q294.23996,636.31494,294.0867,636.3405Q294.1889,636.23834,294.26553,636.13617Q294.31662,636.034,294.4188,635.90625 Z M259.62558,636.4938Q258.27167,636.4938,258.22055,637.5923Q259.11465,636.8769,260.21313,636.87695L260.57077,636.877Q260.44305,636.49384,259.62558,636.4938 Z M294.31662,638.10315L294.0867,638.33307L294.31662,638.5629L294.54654,638.33307L294.31662,638.10315 Z M259.8555,637.61774Q258.65485,637.6178,258.57822,638.5885L258.65485,638.6141Q258.85922,638.3075,259.16577,638.10315L259.8555,637.72L259.8555,637.61774 Z M286.19308,636.6981L296.74347,636.85144L296.64127,637.54114L294.90417,637.9754L294.90417,638.07764Q295.33844,638.1287,295.77274,638.1543Q296.20697,638.1543,296.64127,638.2053Q296.64127,638.282,296.61572,638.38416Q296.61572,638.4863,296.59018,638.63965L295.15964,639.0228L295.15964,639.125Q295.49173,639.1761,295.82385,639.20166Q296.1559,639.2272,296.488,639.2783L296.43692,639.4571Q296.43692,639.58484,295.9515,639.6359Q295.49173,639.66144,294.92972,639.66144Q294.52097,639.66144,294.16333,639.6359L287.0872,639.6359Q286.423,639.63586,285.7333,639.66144Q285.78442,639.4826,285.80994,639.3549Q285.80994,639.2272,285.88657,639.0484L287.62366,638.79297L287.62366,638.7163Q287.26602,638.61414,286.83173,638.5375Q286.423,638.4863,286.0399,638.3842L287.9047,638.00104L287.90466,637.9244Q287.36816,637.9243,286.85727,637.8988L285.80988,637.89874L286.19308,636.6981 Z M260.3664,639.6359Q261.4649,639.6359,261.5926,640.8621L259.16574,642.0628Q259.39566,642.497,259.62558,642.80365Q259.82996,643.11017,259.93213,643.2635Q259.65112,643.46783,259.2935,643.4678Q258.83368,643.46783,258.4505,642.9314Q258.09283,642.3949,258.0928,641.7562Q258.0928,641.373,258.29718,640.98987Q258.476,640.6066,258.8081,640.3001Q259.14023,639.9935,259.54895,639.81476Q259.93216,639.636,260.3664,639.6359 Z M261.77142,643.1612L261.5415,643.3912L261.9247,643.64655L262.15463,643.4167L261.77142,643.1612 Z M295.7472,640.17236L291.91534,643.9786Q291.71097,643.9786,291.48105,643.95306L291.07233,643.9531L291.7876,642.65027L291.71097,642.65027Q291.37888,642.9313,291.0468,643.2634Q290.74026,643.59546,290.40814,643.87646L289.89722,643.87646L290.99573,642.65027L290.9446,642.57367Q290.4848,642.9057,289.94833,643.2378Q289.41187,643.5443,288.95203,643.8765Q288.59442,643.8765,288.28784,643.85095L287.67474,643.85095Q288.6455,642.95685,289.59067,642.0371Q290.5103,641.143,291.48108,640.24896L295.7472,640.17236 Z M288.51776,645.33264Q288.36447,645.33264,288.23676,645.5881Q288.36447,645.8435,288.51776,645.8435Q288.64548,645.8435,288.84985,645.5881Q288.67105,645.33264,288.51776,645.33264 Z M273.4203,645.51135Q272.88382,645.5625,272.52615,645.6135Q272.16855,645.66473,271.93863,645.66473Q271.40286,645.66473,271.12192,645.56274L271.12137,645.56274Q271.42795,645.97125,272.16855,645.97125Q272.986,645.9712,273.44583,645.5881L273.4203,645.51135 Z M260.5708,635.4465Q261.3627,635.4464,262.05243,635.90625Q262.7166,636.3405,263.2275,637.1069Q263.7129,637.8477,263.9939,638.8184Q264.24936,639.7637,264.24936,640.75995Q264.2494,642.0884,263.78955,643.0335L263.3808,642.4204Q263.58514,641.7051,263.71286,641.2453Q263.8406,640.811,263.8406,640.6578Q263.84064,639.94244,263.45743,639.27826L263.35526,639.3293Q263.45743,639.7126,263.45743,640.1213Q263.4574,640.6066,263.35522,641.06647Q263.27863,641.50073,263.07425,641.935Q262.921,641.7051,262.84433,641.4241Q262.79324,641.1431,262.7677,640.8621Q262.74216,640.6067,262.7166,640.3512Q262.69107,640.12134,262.5889,639.9935Q262.5378,640.22345,262.46115,640.4789Q262.41006,640.7344,262.33344,640.96423L261.72034,639.6359Q261.20944,638.9462,260.28976,638.94617Q259.75333,638.9462,259.26794,639.2272Q258.80814,639.4826,258.42493,639.9169Q258.0673,640.35126,257.8374,640.9132Q257.63303,641.4752,257.63303,642.06274Q257.63303,643.9021,259.62558,643.9021L259.8555,643.9021Q260.08542,643.9021,260.11096,643.8765Q260.21313,643.9532,260.28976,644.05536Q260.34088,644.132,260.44305,644.2087Q260.23868,644.5152,259.62558,644.5152Q259.16595,644.51514,258.6043,644.2089L258.60388,644.2089Q258.91043,644.94946,259.5745,644.9494Q260.16205,644.9494,260.64743,644.6174Q260.64743,644.64294,260.69852,644.71954Q260.7496,644.7707,260.77515,644.8473Q260.72406,644.87286,260.57077,644.94946Q260.44305,645.02606,260.26422,645.1027Q260.08542,645.1794,259.9066,645.2304Q259.7533,645.28156,259.65112,645.28156L259.62558,645.35815Q260.00876,645.5114,260.23868,645.5114Q260.62186,645.5114,260.9029,645.23047Q260.92844,645.3071,261.00504,645.4092Q261.08167,645.51135,261.18387,645.6391Q260.59634,645.84357,260.1365,645.94574Q259.6767,646.048,259.2935,646.0479Q258.55267,646.04785,257.96515,645.7158Q257.37753,645.40924,256.96884,644.8472Q256.58563,644.31085,256.35574,643.54443Q256.15137,642.7781,256.15137,641.884Q256.15137,640.78546,256.48346,639.636Q256.81555,638.4864,257.4031,637.54114Q257.99066,636.6215,258.80814,636.034Q259.60004,635.4465,260.5708,635.4465 Z M271.17242,646.1503Q271.479,646.6865,272.27072,646.6866Q273.11374,646.6865,273.72684,646.27783L273.67575,646.17566Q273.19037,646.37994,272.39847,646.37994Q271.73468,646.37994,271.17297,646.1503 Z M296.41138,644.43854L296.41138,645.256L294.9042,645.51135L294.9042,645.5881Q295.15967,645.6647,295.44067,645.74133Q295.72168,645.7925,296.00262,645.8946L294.31665,646.12445L294.31665,646.20105L296.30917,646.4821Q296.30917,646.5332,296.33475,646.5843Q296.36026,646.6099,296.36026,646.71204Q293.70358,646.8909,290.91904,647.1207Q288.16016,647.32513,285.5034,647.52954Q285.4523,647.4784,285.47784,647.40173Q285.5034,647.3507,285.4523,647.27405L287.80252,646.8143L287.80252,646.7376Q287.21497,646.63544,286.65295,646.5588Q286.09097,646.5077,285.5034,646.431L285.5034,646.37994Q285.52896,646.37994,285.52896,646.32886L287.21497,646.04785L287.21497,645.94574Q286.78067,645.92017,286.26978,645.818Q285.78442,645.74133,285.35013,645.6902Q285.35013,645.51135,285.37567,645.35815Q285.4012,645.20483,285.45227,645.0004Q286.03986,644.6429,287.82803,644.54065Q289.59067,644.4384,292.5029,644.4385 Z M280.82852,635.8552L281.18616,637.3368L281.26282,637.3368L281.51828,635.9319Q281.56934,635.93176,281.62042,635.9573Q281.64597,635.9828,281.7226,635.9828L281.8759,637.1835L281.97806,637.23456Q282.0036,637.0813,282.0547,636.8514Q282.1058,636.64703,282.18243,636.4171Q282.2591,636.21277,282.36127,636.0595Q282.46347,635.9062,282.5912,635.9062Q282.77002,635.90625,282.82108,635.88074Q282.82108,638.7929,282.84662,641.52625Q282.84662,644.23413,282.84662,647.1463L282.69336,647.1718L282.489,646.2012L282.41235,646.2012Q282.3613,646.3545,282.33572,646.53326Q282.33572,646.7121,282.31018,646.8909Q282.28467,647.0442,282.208,647.14636Q282.13138,647.2486,281.95255,647.24854L281.54382,645.5114L281.44162,645.5114Q281.41608,645.97125,281.365,646.4566Q281.31387,646.94196,281.26282,647.4018Q281.00735,647.4273,280.80298,647.5295Q280.62415,647.60614,280.36868,647.6572L280.7519,635.8552 Z M277.6353,635.65076Q277.66086,635.9318,277.68643,636.2639Q277.68643,636.59595,277.6864,636.9536Q277.6864,638.4608,277.5331,640.1213Q277.37982,641.78174,277.04776,643.62103Q276.79227,644.7961,276.38354,645.6391Q276.00043,646.4566,275.36176,646.9675Q274.7487,647.4785,273.829,647.7339Q272.9094,647.9638,271.6065,647.9638Q270.61026,647.9638,269.86942,647.55505Q269.12857,647.14624,268.61768,646.25226Q268.13232,645.3837,267.87686,643.9531Q267.62143,642.5481,267.6214,640.55554L267.6214,639.6614Q267.6214,639.4315,267.64694,639.176Q267.6725,638.94617,267.6725,638.5885L267.6725,638.3075Q267.6725,638.0265,267.69803,637.72Q267.69803,637.43896,267.72357,637.1835L267.74915,636.6215L267.82578,636.5193L268.28558,638.76733L268.3878,638.76733Q268.31116,638.1798,268.26,637.61774Q268.23447,637.08136,268.20895,636.4937Q268.33667,636.4937,268.4133,636.4682L268.59213,636.4682L269.05197,638.6652L269.12857,638.66516L269.2308,636.2894Q269.5118,636.23834,269.7417,636.18726Q269.94608,636.13617,270.09933,636.1361Q270.3548,636.1361,270.3548,636.4171L270.3548,636.92804Q270.3548,637.1835,270.32922,637.7455Q270.3037,638.30756,270.27817,638.9206Q270.25262,639.53375,270.22705,640.0957Q270.2015,640.63214,270.2015,640.88763Q270.2015,644.94934,272.29626,644.94934Q274.95303,644.94934,274.953,637.6689Q274.953,636.7492,274.87637,635.9062Q275.08072,635.85516,275.25955,635.8296Q275.4384,635.804,275.64276,635.7785L275.64276,636.034Q275.64276,636.31494,275.66827,636.6982Q275.66827,637.0558,275.77045,637.51556L275.84708,637.51556Q275.97482,636.90247,276.10254,636.46826Q276.20474,636.03394,276.358,635.77844Q276.358,635.804,276.48575,635.804Q276.6625,635.8041,276.6895,635.77905L276.6901,635.77905L276.66458,638.00104L276.76675,638.00104Q276.79227,637.9243,276.84338,637.6178L277.32877,635.65076 Z M261.82254,641.39856Q262.81882,642.80365,263.7129,644.0809Q264.58142,645.3326,265.5522,646.7376L265.169,647.17194L264.326,645.94574L264.2749,645.97125Q264.30048,646.3545,264.3771,646.7376Q264.45374,647.0953,264.50482,647.52954L263.68738,646.38L263.5852,646.38Q263.68738,646.76324,263.84064,647.1974Q263.9939,647.60614,264.09607,647.9894L263.8151,648.2448Q262.84436,646.7121,261.8736,645.256Q260.9029,643.8255,259.93213,642.26715Q259.98325,642.26715,260.03433,642.21606Q260.08542,642.19055,260.08542,642.165L260.9029,642.75256L260.92844,642.7015Q260.80072,642.49713,260.7241,642.3183Q260.67297,642.13947,260.6219,641.96063L260.82626,641.85846Q261.0817,642.11383,261.3627,642.42035Q261.6437,642.7269,261.74588,642.7269L261.79697,642.6503Q261.61816,642.3182,261.51596,642.0883Q261.43933,641.8584,261.33716,641.6029Q261.46487,641.5774,261.56708,641.5263Q261.66925,641.4752,261.82254,641.39856 Z M280.1388,635.06323L279.55124,648.4491L283.63855,647.9893L283.63855,635.4464L280.1388,635.06323 Z M278.27396,635.06323L274.23773,635.44635L274.23773,635.8807Q274.23776,640.1723,273.77795,642.19055Q273.31808,644.18304,272.29626,644.183Q270.89124,644.18304,270.89127,641.2198Q270.89127,640.9388,270.9168,640.3512Q270.94238,639.7637,270.9679,639.0995Q270.99344,638.4608,271.01898,637.84766Q271.04453,637.26013,271.04453,636.9791Q271.04453,636.6215,271.01898,636.26385Q270.99344,635.90625,270.9679,635.62524L266.9572,636.0084Q266.98276,636.03394,266.98276,636.2894L266.9828,638.7163Q266.9828,640.0191,266.93167,640.7599Q266.88058,641.47516,266.88058,641.75616Q266.88058,643.67206,267.21265,645.02594Q267.5192,646.35443,268.1834,647.19745Q268.8476,648.04047,269.86942,648.4236Q270.89127,648.78125,272.29626,648.78125Q277.3032,648.7812,278.12067,641.4752L278.12067,639.86584Q278.12067,639.0228,278.19733,638.1288Q278.27393,637.2602,278.37613,636.31494L278.42722,636.13617Q278.42722,635.95734,278.37613,635.70184Q278.32504,635.4465,278.27396,635.06323 Z M288.6199,648.21924L287.98132,648.8835L287.4193,648.2448Q287.70032,648.2448,288.00684,648.2193 Z M260.44305,634.93555Q259.37012,634.9355,258.42496,635.5741Q257.50528,636.1872,256.79,637.1836Q256.10028,638.1799,255.69156,639.45715Q255.30835,640.7088,255.30835,642.01166Q255.30835,644.1575,256.3813,645.3837Q257.42865,646.5844,259.37015,646.58435Q260.44305,646.5844,261.72034,645.9713L263.63626,649.0623L266.2164,646.63544L264.1472,643.6466Q264.91354,642.3182,264.91354,640.6833Q264.91357,639.6104,264.55594,638.56305Q264.22382,637.5412,263.61072,636.7237Q262.99762,635.9318,262.18018,635.4209Q261.3627,634.93555,260.44305,634.93555 Z M294.49542,635.26764L293.37146,636.28937L285.35016,636.034L284.96692,640.1213Q286.37192,640.1979,287.8025,640.2235Q289.2075,640.24896,290.6125,640.30005L286.88287,644.0042L284.66037,644.23413L284.81363,648.24475L286.72958,648.3215L288.03238,649.5221Q288.36444,649.18994,288.7221,648.80676Q289.07974,648.4236,289.4374,648.09155L296.99893,647.2741L296.99893,647.0953Q296.99893,646.8909,297.05,646.53326Q297.07556,646.1756,297.12665,645.7924Q297.15216,645.4091,297.20328,645.0771Q297.2288,644.74493,297.2288,644.5917Q297.2288,644.0041,297.12665,643.77423Q296.07928,643.8254,294.95532,643.85095Q293.85684,643.87646,292.80945,643.9531Q293.678,643.0591,294.59766,642.1139Q295.49173,641.16864,296.3858,640.2745L297.2033,640.22345L297.58646,636.2383L297.58566,636.2383Q297.15158,636.2383,296.488,636.2639L295.3129,636.26385L294.49542,635.26764 Z"/> </g> </g> <g> <g style="fill:rgb(195,116,46); fill-opacity:1.0; stroke-linejoin: miter"> <path d="M276.9472,613.39874Q276.94412,613.39874,276.94107,613.39874L276.90964,613.4937Q278.04898,613.8395,279.06253,614.53357Q280.07602,615.22754,280.55252,616.3021L280.64734,616.27026Q280.64627,615.70087,280.29733,615.1639Q279.9484,614.6583,279.40994,614.2482Q278.8715,613.8696,278.20673,613.6178Q277.54547,613.39874,276.9472,613.39874 Z M277.39133,614.8846Q277.389,614.8846,277.3867,614.8846L277.1021,614.94836L277.1023,615.0433Q277.35547,615.1061,277.64032,615.2005Q277.8936,615.29486,278.1786,615.4842Q278.43198,615.6418,278.6856,615.9577Q278.93924,616.27344,279.19324,616.7791L279.31958,616.68396Q279.31815,615.9248,278.74777,615.3882Q278.17914,614.8846,277.39133,614.8846 Z M275.6958,624.06085L275.38007,624.37775L275.66528,624.6619L275.9178,624.3768L275.6958,624.06085 Z M276.69858,612.387Q277.8617,612.38696,278.83783,612.7942Q279.8191,613.1719,280.51633,613.8665Q281.2135,614.5611,281.5949,615.541Q281.97632,616.5208,281.97855,617.69116Q281.981,619.01965,281.57175,620.0642Q281.1941,621.0772,280.0884,621.8384Q279.3934,622.3143,278.91962,622.6947Q278.44583,623.0436,278.16196,623.48694Q277.87805,623.8986,277.75266,624.4999Q277.6272,625.06946,277.62885,625.9551Q277.62915,626.1133,277.66107,626.27136Q277.66135,626.42957,277.6615,626.49286Q277.6565,626.49286,277.65152,626.49286Q277.24606,626.49286,276.9022,626.4309Q276.5542,626.39996,276.11124,626.3376Q276.26776,625.4516,276.32983,624.81885Q276.392,624.2177,276.51752,623.67975L276.42255,623.6483Q276.07635,624.5979,275.88785,625.2625Q275.73083,625.8954,275.66815,626.2118L275.6682,626.24347Q275.59,626.22797,275.49634,626.22797Q275.40057,626.22797,275.28864,626.24414Q275.28717,626.24414,275.28574,626.24414Q275.0662,626.24414,274.90894,626.1816Q275.0337,625.2325,275.12747,624.6313Q275.18967,624.0618,275.28375,623.6188L275.2834,623.6188L275.18884,623.61896Q274.8426,624.5053,274.65408,625.20154Q274.46555,625.8662,274.37128,626.21423L273.8968,626.2151L273.8957,625.61414Q273.89304,624.1908,274.39706,623.08276Q274.86945,621.9747,276.06985,621.1184Q278.53384,619.3741,278.53012,617.3814Q278.5285,616.52734,277.98978,615.9906Q277.4529,615.4872,276.54,615.4872Q276.5369,615.4872,276.53378,615.48724Q275.48993,615.48914,274.60556,616.1867Q273.72116,616.8842,273.1539,617.9924Q272.96375,617.8029,272.74188,617.5503Q272.52002,617.32935,272.29825,617.1399Q272.4872,616.6967,272.77106,616.2534Q273.05496,615.8416,273.40207,615.39813L273.30707,615.335Q272.89636,615.5889,272.51736,615.9059Q272.1383,616.1913,271.7276,616.44507L271.5057,616.1925L273.14713,614.3864L273.14697,614.2915Q272.3886,614.7357,271.9779,614.9896Q271.5672,615.2434,271.28308,615.56024Q272.10263,614.0404,273.52454,613.2154Q274.94638,612.39026,276.68613,612.387Q276.69235,612.387,276.69858,612.387 Z M275.5182,627.19275Q276.49487,627.1927,277.25266,627.75885Q277.98117,628.29517,277.98294,629.24414Q277.98358,629.59204,277.79462,630.0353Q277.63727,630.4468,277.35324,630.7953Q277.06918,631.14374,276.69012,631.3975Q276.31094,631.6196,275.89975,631.6204Q275.89847,631.6204,275.8972,631.6204Q275.39267,631.62036,275.01334,631.24243L275.04495,631.24243L274.59915,629.6616Q274.28342,629.9785,274.28442,630.4847Q273.7138,629.8215,273.71152,628.5879Q273.71027,627.92365,274.24725,627.54297Q274.75272,627.1941,275.51187,627.19275Q275.51505,627.19275,275.5182,627.19275 Z M276.922,611.69073Q276.91412,611.69073,276.90625,611.69073Q275.70425,611.693,274.56616,612.043Q273.45975,612.393,272.54355,612.9957Q271.62738,613.5985,270.96466,614.4221Q270.3335,615.2141,270.05054,616.13196L273.40863,618.87756Q274.95392,616.4074,276.18753,616.40515Q276.1885,616.40515,276.18948,616.40515Q276.47342,616.40515,276.82043,616.5621Q277.16864,616.688,277.4855,616.9721Q277.4235,617.6364,277.07678,618.30133Q276.76172,618.96625,276.31995,619.5364Q275.9098,620.10657,275.46774,620.5186Q275.0573,620.9306,274.83618,621.0891Q274.39392,621.40625,274.04684,621.88135Q273.69974,622.3248,273.448,623.02124Q273.19617,623.6859,273.0715,624.66675Q272.94672,625.61584,272.94922,626.9128Q272.94974,626.9128,272.9503,626.9128Q273.04498,626.9128,273.20233,626.944Q273.32867,626.9438,273.45505,626.94354L273.45538,626.94354Q272.88754,627.767,272.8895,628.81085Q272.89215,630.2342,273.77972,631.2448Q274.6334,632.25275,276.0516,632.25275Q276.05533,632.25275,276.05908,632.25275Q277.35596,632.2503,278.01874,631.4583Q278.6499,630.6663,278.64755,629.4327Q278.64508,628.1042,277.7575,627.0936L277.75787,627.0936L278.51672,627.1239L278.51447,625.9219Q278.51306,625.1627,278.6071,624.6881Q278.70105,624.2134,278.89026,623.89667Q279.07944,623.5801,279.3321,623.3582Q279.58478,623.1679,279.9007,622.946Q281.70206,622.08844,282.26877,620.664Q282.83548,619.2395,282.83185,617.31Q282.82947,616.04474,282.3847,615.00183Q281.9399,613.9587,281.1477,613.20105Q280.35556,612.475,279.2477,612.066Q278.1782,611.69073,276.922,611.69073 Z"/> </g> </g> </g> </svg>